<mxfile host="app.diagrams.net" modified="2024-03-07T01:04:42.619Z" agent="Mozilla/5.0 (Windows NT 10.0; Win64; x64) AppleWebKit/537.36 (KHTML, like Gecko) Chrome/122.0.0.0 Safari/537.36" etag="rAmCkJ0y7JEc7P-rxuhU" version="24.0.2" type="device">
  <diagram name="Page-1" id="oOXIH6qJuFytHxexrqkR">
    <mxGraphModel dx="2284" dy="772" grid="1" gridSize="10" guides="1" tooltips="1" connect="1" arrows="1" fold="1" page="1" pageScale="1" pageWidth="850" pageHeight="1100" math="0" shadow="0">
      <root>
        <mxCell id="0" />
        <mxCell id="1" parent="0" />
        <mxCell id="wKZz9qKqQG9GuFVw73VF-2" value="" style="shape=image;verticalLabelPosition=bottom;labelBackgroundColor=default;verticalAlign=top;aspect=fixed;imageAspect=0;image=https://cdn-icons-png.flaticon.com/128/14186/14186472.png;" parent="1" vertex="1">
          <mxGeometry x="320" y="240" width="80" height="80" as="geometry" />
        </mxCell>
        <mxCell id="wKZz9qKqQG9GuFVw73VF-15" style="edgeStyle=orthogonalEdgeStyle;rounded=0;orthogonalLoop=1;jettySize=auto;html=1;exitX=0;exitY=0.5;exitDx=0;exitDy=0;entryX=1;entryY=0.5;entryDx=0;entryDy=0;" parent="1" source="wKZz9qKqQG9GuFVw73VF-3" target="wKZz9qKqQG9GuFVw73VF-5" edge="1">
          <mxGeometry relative="1" as="geometry" />
        </mxCell>
        <mxCell id="wKZz9qKqQG9GuFVw73VF-16" style="edgeStyle=orthogonalEdgeStyle;rounded=0;orthogonalLoop=1;jettySize=auto;html=1;exitX=0;exitY=0.5;exitDx=0;exitDy=0;entryX=1;entryY=0.5;entryDx=0;entryDy=0;" parent="1" source="wKZz9qKqQG9GuFVw73VF-3" target="wKZz9qKqQG9GuFVw73VF-7" edge="1">
          <mxGeometry relative="1" as="geometry" />
        </mxCell>
        <mxCell id="wKZz9qKqQG9GuFVw73VF-17" style="edgeStyle=orthogonalEdgeStyle;rounded=0;orthogonalLoop=1;jettySize=auto;html=1;exitX=0;exitY=0.5;exitDx=0;exitDy=0;entryX=1;entryY=0.5;entryDx=0;entryDy=0;" parent="1" source="wKZz9qKqQG9GuFVw73VF-3" target="wKZz9qKqQG9GuFVw73VF-6" edge="1">
          <mxGeometry relative="1" as="geometry" />
        </mxCell>
        <mxCell id="wKZz9qKqQG9GuFVw73VF-3" value="&lt;font face=&quot;Segoe UI&quot;&gt;Core Values&lt;/font&gt;" style="rounded=0;whiteSpace=wrap;html=1;fillColor=#C0D72F;fontStyle=1" parent="1" vertex="1">
          <mxGeometry x="170" y="250" width="120" height="60" as="geometry" />
        </mxCell>
        <mxCell id="wKZz9qKqQG9GuFVw73VF-18" style="edgeStyle=orthogonalEdgeStyle;rounded=0;orthogonalLoop=1;jettySize=auto;html=1;exitX=1;exitY=0.5;exitDx=0;exitDy=0;entryX=0;entryY=0.5;entryDx=0;entryDy=0;" parent="1" source="wKZz9qKqQG9GuFVw73VF-4" target="wKZz9qKqQG9GuFVw73VF-8" edge="1">
          <mxGeometry relative="1" as="geometry" />
        </mxCell>
        <mxCell id="wKZz9qKqQG9GuFVw73VF-19" style="edgeStyle=orthogonalEdgeStyle;rounded=0;orthogonalLoop=1;jettySize=auto;html=1;exitX=1;exitY=0.5;exitDx=0;exitDy=0;" parent="1" source="wKZz9qKqQG9GuFVw73VF-4" target="wKZz9qKqQG9GuFVw73VF-9" edge="1">
          <mxGeometry relative="1" as="geometry" />
        </mxCell>
        <mxCell id="wKZz9qKqQG9GuFVw73VF-20" style="edgeStyle=orthogonalEdgeStyle;rounded=0;orthogonalLoop=1;jettySize=auto;html=1;exitX=1;exitY=0.5;exitDx=0;exitDy=0;entryX=0;entryY=0.5;entryDx=0;entryDy=0;" parent="1" source="wKZz9qKqQG9GuFVw73VF-4" target="wKZz9qKqQG9GuFVw73VF-10" edge="1">
          <mxGeometry relative="1" as="geometry" />
        </mxCell>
        <mxCell id="wKZz9qKqQG9GuFVw73VF-4" value="Communication Skills" style="rounded=0;whiteSpace=wrap;html=1;fillColor=#003666;fontFamily=Segoe UI;fontColor=#FFFFFF;fontStyle=1" parent="1" vertex="1">
          <mxGeometry x="430" y="250" width="120" height="60" as="geometry" />
        </mxCell>
        <mxCell id="wKZz9qKqQG9GuFVw73VF-5" value="&lt;font face=&quot;Segoe UI&quot;&gt;Genuineness and Honesty&lt;/font&gt;" style="rounded=0;whiteSpace=wrap;html=1;fillColor=#C0D72F;fontStyle=1" parent="1" vertex="1">
          <mxGeometry y="250" width="120" height="60" as="geometry" />
        </mxCell>
        <mxCell id="wKZz9qKqQG9GuFVw73VF-6" value="&lt;font face=&quot;Segoe UI&quot;&gt;Humility and Free of Prejudice&lt;/font&gt;" style="rounded=0;whiteSpace=wrap;html=1;fillColor=#C0D72F;fontStyle=1" parent="1" vertex="1">
          <mxGeometry y="340" width="120" height="60" as="geometry" />
        </mxCell>
        <mxCell id="wKZz9qKqQG9GuFVw73VF-7" value="&lt;font face=&quot;Segoe UI&quot;&gt;Person-Centred and Humanise&lt;/font&gt;" style="rounded=0;whiteSpace=wrap;html=1;fillColor=#C0D72F;fontStyle=1" parent="1" vertex="1">
          <mxGeometry y="160" width="120" height="60" as="geometry" />
        </mxCell>
        <mxCell id="wKZz9qKqQG9GuFVw73VF-8" value="Rapport and Relationship Building" style="rounded=0;whiteSpace=wrap;html=1;fillColor=#003666;fontFamily=Segoe UI;fontColor=#FFFFFF;fontStyle=1" parent="1" vertex="1">
          <mxGeometry x="590" y="160" width="120" height="60" as="geometry" />
        </mxCell>
        <mxCell id="wKZz9qKqQG9GuFVw73VF-9" value="Layperson Terms" style="rounded=0;whiteSpace=wrap;html=1;fillColor=#003666;fontFamily=Segoe UI;fontColor=#FFFFFF;fontStyle=1" parent="1" vertex="1">
          <mxGeometry x="590" y="250" width="120" height="60" as="geometry" />
        </mxCell>
        <mxCell id="wKZz9qKqQG9GuFVw73VF-10" value="Empowering Communication" style="rounded=0;whiteSpace=wrap;html=1;fillColor=#003666;fontFamily=Segoe UI;fontColor=#FFFFFF;fontStyle=1" parent="1" vertex="1">
          <mxGeometry x="590" y="340" width="120" height="60" as="geometry" />
        </mxCell>
        <mxCell id="wKZz9qKqQG9GuFVw73VF-11" value="Clinicians" style="text;html=1;align=center;verticalAlign=middle;whiteSpace=wrap;rounded=0;fontFamily=Segoe UI;fontStyle=1" parent="1" vertex="1">
          <mxGeometry x="330" y="320" width="60" height="30" as="geometry" />
        </mxCell>
        <mxCell id="wKZz9qKqQG9GuFVw73VF-12" value="Clinicians emphasise the patient&#39;s humanity and individuality." style="text;html=1;align=right;verticalAlign=middle;whiteSpace=wrap;rounded=0;fontFamily=Segoe UI;fontSize=10;fontStyle=1" parent="1" vertex="1">
          <mxGeometry x="-200" y="175" width="190" height="30" as="geometry" />
        </mxCell>
        <mxCell id="wKZz9qKqQG9GuFVw73VF-13" value="&lt;div&gt;Clinicians genuinely care for their patients and are honest about their limitations.&lt;/div&gt;" style="text;html=1;align=right;verticalAlign=middle;whiteSpace=wrap;rounded=0;fontFamily=Segoe UI;fontSize=10;fontStyle=1" parent="1" vertex="1">
          <mxGeometry x="-200" y="265" width="190" height="30" as="geometry" />
        </mxCell>
        <mxCell id="wKZz9qKqQG9GuFVw73VF-14" value="&lt;div&gt;Clinicians have the humility to learn from the patient and to overcome personal biases.&lt;/div&gt;" style="text;html=1;align=right;verticalAlign=middle;whiteSpace=wrap;rounded=0;fontFamily=Segoe UI;fontSize=10;fontStyle=1" parent="1" vertex="1">
          <mxGeometry x="-200" y="355" width="190" height="30" as="geometry" />
        </mxCell>
        <mxCell id="wKZz9qKqQG9GuFVw73VF-21" value="" style="shape=image;verticalLabelPosition=bottom;labelBackgroundColor=default;verticalAlign=top;aspect=fixed;imageAspect=0;image=https://cdn-icons-png.flaticon.com/128/3358/3358869.png;" parent="1" vertex="1">
          <mxGeometry x="325" y="575" width="70" height="70" as="geometry" />
        </mxCell>
        <mxCell id="wKZz9qKqQG9GuFVw73VF-22" value="Aboriginal and Torres Strait Islander Patients" style="text;html=1;align=center;verticalAlign=middle;whiteSpace=wrap;rounded=0;fontFamily=Segoe UI;fontStyle=1" parent="1" vertex="1">
          <mxGeometry x="290" y="530" width="120" height="30" as="geometry" />
        </mxCell>
        <mxCell id="wKZz9qKqQG9GuFVw73VF-32" style="edgeStyle=orthogonalEdgeStyle;rounded=0;orthogonalLoop=1;jettySize=auto;html=1;exitX=1;exitY=0.5;exitDx=0;exitDy=0;entryX=0;entryY=0.5;entryDx=0;entryDy=0;" parent="1" source="wKZz9qKqQG9GuFVw73VF-23" target="wKZz9qKqQG9GuFVw73VF-30" edge="1">
          <mxGeometry relative="1" as="geometry" />
        </mxCell>
        <mxCell id="wKZz9qKqQG9GuFVw73VF-33" style="edgeStyle=orthogonalEdgeStyle;rounded=0;orthogonalLoop=1;jettySize=auto;html=1;exitX=1;exitY=0.5;exitDx=0;exitDy=0;entryX=0;entryY=0.5;entryDx=0;entryDy=0;" parent="1" source="wKZz9qKqQG9GuFVw73VF-23" target="wKZz9qKqQG9GuFVw73VF-29" edge="1">
          <mxGeometry relative="1" as="geometry" />
        </mxCell>
        <mxCell id="wKZz9qKqQG9GuFVw73VF-34" style="edgeStyle=orthogonalEdgeStyle;rounded=0;orthogonalLoop=1;jettySize=auto;html=1;exitX=1;exitY=0.5;exitDx=0;exitDy=0;entryX=0;entryY=0.5;entryDx=0;entryDy=0;" parent="1" source="wKZz9qKqQG9GuFVw73VF-23" target="wKZz9qKqQG9GuFVw73VF-31" edge="1">
          <mxGeometry relative="1" as="geometry" />
        </mxCell>
        <mxCell id="wKZz9qKqQG9GuFVw73VF-23" value="Historical Context" style="rounded=0;whiteSpace=wrap;html=1;fillColor=#003666;fontFamily=Segoe UI;fontColor=#FFFFFF;fontStyle=1" parent="1" vertex="1">
          <mxGeometry x="430" y="575" width="120" height="60" as="geometry" />
        </mxCell>
        <mxCell id="wKZz9qKqQG9GuFVw73VF-26" value="Clinicians need to learn how to build rapport and establish a trusting relationship with their patients." style="text;html=1;align=left;verticalAlign=middle;whiteSpace=wrap;rounded=0;fontFamily=Segoe UI;fontSize=10;fontStyle=1" parent="1" vertex="1">
          <mxGeometry x="720" y="175" width="190" height="30" as="geometry" />
        </mxCell>
        <mxCell id="wKZz9qKqQG9GuFVw73VF-27" value="Clinicians need to use layperson&#39;s terms instead of clinical jargon when communicating with patients." style="text;html=1;align=left;verticalAlign=middle;whiteSpace=wrap;rounded=0;fontFamily=Segoe UI;fontSize=10;fontStyle=1" parent="1" vertex="1">
          <mxGeometry x="720" y="265" width="190" height="30" as="geometry" />
        </mxCell>
        <mxCell id="wKZz9qKqQG9GuFVw73VF-28" value="&lt;div&gt;Clinicians need to empower patients by listening to their needs and wants throughout their communication.&lt;/div&gt;" style="text;html=1;align=left;verticalAlign=middle;whiteSpace=wrap;rounded=0;fontFamily=Segoe UI;fontSize=10;fontStyle=1" parent="1" vertex="1">
          <mxGeometry x="720" y="355" width="190" height="30" as="geometry" />
        </mxCell>
        <mxCell id="wKZz9qKqQG9GuFVw73VF-29" value="Transgenerational Trauma" style="rounded=0;whiteSpace=wrap;html=1;fillColor=#003666;fontFamily=Segoe UI;fontColor=#FFFFFF;fontStyle=1" parent="1" vertex="1">
          <mxGeometry x="590" y="480" width="120" height="60" as="geometry" />
        </mxCell>
        <mxCell id="wKZz9qKqQG9GuFVw73VF-30" value="History of Oppression, Racism, and Discrimination" style="rounded=0;whiteSpace=wrap;html=1;fillColor=#003666;fontFamily=Segoe UI;fontColor=#FFFFFF;fontStyle=1" parent="1" vertex="1">
          <mxGeometry x="590" y="575" width="120" height="60" as="geometry" />
        </mxCell>
        <mxCell id="wKZz9qKqQG9GuFVw73VF-31" value="Mistrust with the System" style="rounded=0;whiteSpace=wrap;html=1;fillColor=#003666;fontFamily=Segoe UI;fontColor=#FFFFFF;fontStyle=1" parent="1" vertex="1">
          <mxGeometry x="590" y="670" width="120" height="60" as="geometry" />
        </mxCell>
        <mxCell id="wKZz9qKqQG9GuFVw73VF-35" value="Clinicians need to be aware of the impact of transgenerational trauma on mental health communication." style="text;html=1;align=left;verticalAlign=middle;whiteSpace=wrap;rounded=0;fontFamily=Segoe UI;fontSize=10;fontStyle=1" parent="1" vertex="1">
          <mxGeometry x="720" y="490" width="190" height="30" as="geometry" />
        </mxCell>
        <mxCell id="wKZz9qKqQG9GuFVw73VF-36" value="Clinicians need to learn about the traumatic events experienced by Aboriginal and Torres Strait Islander peoples to truly understand their patients&#39; context." style="text;html=1;align=left;verticalAlign=middle;whiteSpace=wrap;rounded=0;fontFamily=Segoe UI;fontSize=10;fontStyle=1" parent="1" vertex="1">
          <mxGeometry x="720" y="590" width="190" height="30" as="geometry" />
        </mxCell>
        <mxCell id="wKZz9qKqQG9GuFVw73VF-37" value="Clinicians need to understand the ongoing systemic racism experienced by Aboriginal and Torres Strait Islander peoples." style="text;html=1;align=left;verticalAlign=middle;whiteSpace=wrap;rounded=0;fontFamily=Segoe UI;fontSize=10;fontStyle=1" parent="1" vertex="1">
          <mxGeometry x="720" y="685" width="190" height="30" as="geometry" />
        </mxCell>
        <mxCell id="wKZz9qKqQG9GuFVw73VF-38" style="edgeStyle=orthogonalEdgeStyle;rounded=0;orthogonalLoop=1;jettySize=auto;html=1;exitX=0;exitY=0.5;exitDx=0;exitDy=0;entryX=1;entryY=0.5;entryDx=0;entryDy=0;" parent="1" source="wKZz9qKqQG9GuFVw73VF-41" target="wKZz9qKqQG9GuFVw73VF-42" edge="1">
          <mxGeometry relative="1" as="geometry" />
        </mxCell>
        <mxCell id="wKZz9qKqQG9GuFVw73VF-39" style="edgeStyle=orthogonalEdgeStyle;rounded=0;orthogonalLoop=1;jettySize=auto;html=1;exitX=0;exitY=0.5;exitDx=0;exitDy=0;entryX=1;entryY=0.5;entryDx=0;entryDy=0;" parent="1" source="wKZz9qKqQG9GuFVw73VF-41" target="wKZz9qKqQG9GuFVw73VF-44" edge="1">
          <mxGeometry relative="1" as="geometry" />
        </mxCell>
        <mxCell id="wKZz9qKqQG9GuFVw73VF-40" style="edgeStyle=orthogonalEdgeStyle;rounded=0;orthogonalLoop=1;jettySize=auto;html=1;exitX=0;exitY=0.5;exitDx=0;exitDy=0;entryX=1;entryY=0.5;entryDx=0;entryDy=0;" parent="1" source="wKZz9qKqQG9GuFVw73VF-41" target="wKZz9qKqQG9GuFVw73VF-43" edge="1">
          <mxGeometry relative="1" as="geometry" />
        </mxCell>
        <mxCell id="wKZz9qKqQG9GuFVw73VF-41" value="&lt;font face=&quot;Segoe UI&quot;&gt;Cultural Context&lt;/font&gt;" style="rounded=0;whiteSpace=wrap;html=1;fillColor=#C0D72F;fontStyle=1" parent="1" vertex="1">
          <mxGeometry x="170" y="580" width="120" height="60" as="geometry" />
        </mxCell>
        <mxCell id="wKZz9qKqQG9GuFVw73VF-42" value="&lt;font face=&quot;Segoe UI&quot;&gt;Local Culture&lt;/font&gt;" style="rounded=0;whiteSpace=wrap;html=1;fillColor=#C0D72F;fontStyle=1" parent="1" vertex="1">
          <mxGeometry y="580" width="120" height="60" as="geometry" />
        </mxCell>
        <mxCell id="wKZz9qKqQG9GuFVw73VF-43" value="&lt;font face=&quot;Segoe UI&quot;&gt;Languages and Communication Styles&lt;/font&gt;" style="rounded=0;whiteSpace=wrap;html=1;fillColor=#C0D72F;fontStyle=1" parent="1" vertex="1">
          <mxGeometry y="670" width="120" height="60" as="geometry" />
        </mxCell>
        <mxCell id="wKZz9qKqQG9GuFVw73VF-44" value="&lt;font face=&quot;Segoe UI&quot;&gt;Family and Kinship&lt;/font&gt;" style="rounded=0;whiteSpace=wrap;html=1;fillColor=#C0D72F;fontStyle=1" parent="1" vertex="1">
          <mxGeometry y="490" width="120" height="60" as="geometry" />
        </mxCell>
        <mxCell id="wKZz9qKqQG9GuFVw73VF-45" value="Clinicians need to consider the significance of family and community support for the patient." style="text;html=1;align=right;verticalAlign=middle;whiteSpace=wrap;rounded=0;fontFamily=Segoe UI;fontSize=10;fontStyle=1" parent="1" vertex="1">
          <mxGeometry x="-200" y="505" width="190" height="30" as="geometry" />
        </mxCell>
        <mxCell id="wKZz9qKqQG9GuFVw73VF-46" value="Clinicians need to learn the cultural meaning of the land, elements, sacred places, totems, and other cultural aspects of the Aboriginal and Torres Strait Islander peoples." style="text;html=1;align=right;verticalAlign=middle;whiteSpace=wrap;rounded=0;fontFamily=Segoe UI;fontSize=10;fontStyle=1" parent="1" vertex="1">
          <mxGeometry x="-200" y="595" width="190" height="30" as="geometry" />
        </mxCell>
        <mxCell id="wKZz9qKqQG9GuFVw73VF-47" value="Clinicians need to be mindful of the diverse communication styles of the Aboriginal and Torres Strait Islander peoples." style="text;html=1;align=right;verticalAlign=middle;whiteSpace=wrap;rounded=0;fontFamily=Segoe UI;fontSize=10;fontStyle=1" parent="1" vertex="1">
          <mxGeometry x="-200" y="685" width="190" height="30" as="geometry" />
        </mxCell>
        <mxCell id="wKZz9qKqQG9GuFVw73VF-48" value="" style="shape=image;verticalLabelPosition=bottom;labelBackgroundColor=default;verticalAlign=top;aspect=fixed;imageAspect=0;image=https://cdn-icons-png.flaticon.com/128/1764/1764267.png;" parent="1" vertex="1">
          <mxGeometry x="315" y="900" width="90" height="90" as="geometry" />
        </mxCell>
        <mxCell id="wKZz9qKqQG9GuFVw73VF-49" value="System Level Consideration" style="text;html=1;align=center;verticalAlign=middle;whiteSpace=wrap;rounded=0;fontFamily=Segoe UI;fontStyle=1" parent="1" vertex="1">
          <mxGeometry x="300" y="860" width="120" height="30" as="geometry" />
        </mxCell>
        <mxCell id="wKZz9qKqQG9GuFVw73VF-50" style="edgeStyle=orthogonalEdgeStyle;rounded=0;orthogonalLoop=1;jettySize=auto;html=1;exitX=0;exitY=0.5;exitDx=0;exitDy=0;entryX=1;entryY=0.5;entryDx=0;entryDy=0;" parent="1" source="wKZz9qKqQG9GuFVw73VF-53" target="wKZz9qKqQG9GuFVw73VF-54" edge="1">
          <mxGeometry relative="1" as="geometry" />
        </mxCell>
        <mxCell id="wKZz9qKqQG9GuFVw73VF-51" style="edgeStyle=orthogonalEdgeStyle;rounded=0;orthogonalLoop=1;jettySize=auto;html=1;exitX=0;exitY=0.5;exitDx=0;exitDy=0;entryX=1;entryY=0.5;entryDx=0;entryDy=0;" parent="1" source="wKZz9qKqQG9GuFVw73VF-53" target="wKZz9qKqQG9GuFVw73VF-56" edge="1">
          <mxGeometry relative="1" as="geometry" />
        </mxCell>
        <mxCell id="wKZz9qKqQG9GuFVw73VF-52" style="edgeStyle=orthogonalEdgeStyle;rounded=0;orthogonalLoop=1;jettySize=auto;html=1;exitX=0;exitY=0.5;exitDx=0;exitDy=0;entryX=1;entryY=0.5;entryDx=0;entryDy=0;" parent="1" source="wKZz9qKqQG9GuFVw73VF-53" target="wKZz9qKqQG9GuFVw73VF-55" edge="1">
          <mxGeometry relative="1" as="geometry" />
        </mxCell>
        <mxCell id="wKZz9qKqQG9GuFVw73VF-53" value="&lt;font face=&quot;Segoe UI&quot;&gt;Health System&lt;/font&gt;" style="rounded=0;whiteSpace=wrap;html=1;fillColor=#C0D72F;fontStyle=1" parent="1" vertex="1">
          <mxGeometry x="180" y="910" width="120" height="60" as="geometry" />
        </mxCell>
        <mxCell id="wKZz9qKqQG9GuFVw73VF-54" value="&lt;font face=&quot;Segoe UI&quot;&gt;Time Constraint&lt;/font&gt;" style="rounded=0;whiteSpace=wrap;html=1;fillColor=#C0D72F;fontStyle=1" parent="1" vertex="1">
          <mxGeometry x="10" y="910" width="120" height="60" as="geometry" />
        </mxCell>
        <mxCell id="wKZz9qKqQG9GuFVw73VF-55" value="&lt;font face=&quot;Segoe UI&quot;&gt;Type of Service&lt;/font&gt;" style="rounded=0;whiteSpace=wrap;html=1;fillColor=#C0D72F;fontStyle=1" parent="1" vertex="1">
          <mxGeometry x="10" y="1000" width="120" height="60" as="geometry" />
        </mxCell>
        <mxCell id="wKZz9qKqQG9GuFVw73VF-56" value="&lt;font face=&quot;Segoe UI&quot;&gt;Local Health Model&lt;/font&gt;" style="rounded=0;whiteSpace=wrap;html=1;fillColor=#C0D72F;fontStyle=1" parent="1" vertex="1">
          <mxGeometry x="10" y="820" width="120" height="60" as="geometry" />
        </mxCell>
        <mxCell id="wKZz9qKqQG9GuFVw73VF-57" style="edgeStyle=orthogonalEdgeStyle;rounded=0;orthogonalLoop=1;jettySize=auto;html=1;exitX=1;exitY=0.5;exitDx=0;exitDy=0;entryX=0;entryY=0.5;entryDx=0;entryDy=0;" parent="1" source="wKZz9qKqQG9GuFVw73VF-60" target="wKZz9qKqQG9GuFVw73VF-62" edge="1">
          <mxGeometry relative="1" as="geometry" />
        </mxCell>
        <mxCell id="wKZz9qKqQG9GuFVw73VF-58" style="edgeStyle=orthogonalEdgeStyle;rounded=0;orthogonalLoop=1;jettySize=auto;html=1;exitX=1;exitY=0.5;exitDx=0;exitDy=0;entryX=0;entryY=0.5;entryDx=0;entryDy=0;" parent="1" source="wKZz9qKqQG9GuFVw73VF-60" target="wKZz9qKqQG9GuFVw73VF-61" edge="1">
          <mxGeometry relative="1" as="geometry" />
        </mxCell>
        <mxCell id="wKZz9qKqQG9GuFVw73VF-59" style="edgeStyle=orthogonalEdgeStyle;rounded=0;orthogonalLoop=1;jettySize=auto;html=1;exitX=1;exitY=0.5;exitDx=0;exitDy=0;entryX=0;entryY=0.5;entryDx=0;entryDy=0;" parent="1" source="wKZz9qKqQG9GuFVw73VF-60" target="wKZz9qKqQG9GuFVw73VF-63" edge="1">
          <mxGeometry relative="1" as="geometry" />
        </mxCell>
        <mxCell id="wKZz9qKqQG9GuFVw73VF-60" value="Demographic Aspects" style="rounded=0;whiteSpace=wrap;html=1;fillColor=#003666;fontFamily=Segoe UI;fontColor=#FFFFFF;fontStyle=1" parent="1" vertex="1">
          <mxGeometry x="440" y="910" width="120" height="60" as="geometry" />
        </mxCell>
        <mxCell id="wKZz9qKqQG9GuFVw73VF-61" value="Regions" style="rounded=0;whiteSpace=wrap;html=1;fillColor=#003666;fontFamily=Segoe UI;fontColor=#FFFFFF;fontStyle=1" parent="1" vertex="1">
          <mxGeometry x="600" y="815" width="120" height="60" as="geometry" />
        </mxCell>
        <mxCell id="wKZz9qKqQG9GuFVw73VF-62" value="Age and Gender" style="rounded=0;whiteSpace=wrap;html=1;fillColor=#003666;fontFamily=Segoe UI;fontColor=#FFFFFF;fontStyle=1" parent="1" vertex="1">
          <mxGeometry x="600" y="910" width="120" height="60" as="geometry" />
        </mxCell>
        <mxCell id="wKZz9qKqQG9GuFVw73VF-63" value="Uniqueness" style="rounded=0;whiteSpace=wrap;html=1;fillColor=#003666;fontFamily=Segoe UI;fontColor=#FFFFFF;fontStyle=1" parent="1" vertex="1">
          <mxGeometry x="600" y="1005" width="120" height="60" as="geometry" />
        </mxCell>
        <mxCell id="wKZz9qKqQG9GuFVw73VF-64" value="Clinicians need to be aware that patients in rural or regional areas experience different services than those in urban areas." style="text;html=1;align=left;verticalAlign=middle;whiteSpace=wrap;rounded=0;fontFamily=Segoe UI;fontSize=10;fontStyle=1" parent="1" vertex="1">
          <mxGeometry x="730" y="830" width="190" height="30" as="geometry" />
        </mxCell>
        <mxCell id="wKZz9qKqQG9GuFVw73VF-65" value="Clinicians need to understand that a patient&#39;s age and gender may influence their communication style." style="text;html=1;align=left;verticalAlign=middle;whiteSpace=wrap;rounded=0;fontFamily=Segoe UI;fontSize=10;fontStyle=1" parent="1" vertex="1">
          <mxGeometry x="730" y="925" width="190" height="30" as="geometry" />
        </mxCell>
        <mxCell id="wKZz9qKqQG9GuFVw73VF-66" value="Aboriginal and Torres Strait Islander peoples are not one homogenous group." style="text;html=1;align=left;verticalAlign=middle;whiteSpace=wrap;rounded=0;fontFamily=Segoe UI;fontSize=10;fontStyle=1" parent="1" vertex="1">
          <mxGeometry x="730" y="1020" width="190" height="30" as="geometry" />
        </mxCell>
        <mxCell id="wKZz9qKqQG9GuFVw73VF-67" value="Clinicians need to be open to the local health model for understanding mental health problems, in addition to the Western health model." style="text;html=1;align=right;verticalAlign=middle;whiteSpace=wrap;rounded=0;fontFamily=Segoe UI;fontSize=10;fontStyle=1" parent="1" vertex="1">
          <mxGeometry x="-190" y="835" width="190" height="30" as="geometry" />
        </mxCell>
        <mxCell id="wKZz9qKqQG9GuFVw73VF-68" value="Clinicians need to learn how to balance taking time to build a connection with the patient while completing forms and meeting KPIs." style="text;html=1;align=right;verticalAlign=middle;whiteSpace=wrap;rounded=0;fontFamily=Segoe UI;fontSize=10;fontStyle=1" parent="1" vertex="1">
          <mxGeometry x="-190" y="920" width="190" height="30" as="geometry" />
        </mxCell>
        <mxCell id="wKZz9qKqQG9GuFVw73VF-69" value="Clinicians need to adjust their mental health communication for different type of services." style="text;html=1;align=right;verticalAlign=middle;whiteSpace=wrap;rounded=0;fontFamily=Segoe UI;fontSize=10;fontStyle=1" parent="1" vertex="1">
          <mxGeometry x="-190" y="1015" width="190" height="30" as="geometry" />
        </mxCell>
        <mxCell id="wKZz9qKqQG9GuFVw73VF-80" style="edgeStyle=orthogonalEdgeStyle;rounded=0;orthogonalLoop=1;jettySize=auto;html=1;exitX=1;exitY=0.5;exitDx=0;exitDy=0;entryX=0;entryY=0.5;entryDx=0;entryDy=0;" parent="1" source="wKZz9qKqQG9GuFVw73VF-70" target="wKZz9qKqQG9GuFVw73VF-75" edge="1">
          <mxGeometry relative="1" as="geometry" />
        </mxCell>
        <mxCell id="wKZz9qKqQG9GuFVw73VF-81" style="edgeStyle=orthogonalEdgeStyle;rounded=0;orthogonalLoop=1;jettySize=auto;html=1;exitX=1;exitY=0.5;exitDx=0;exitDy=0;entryX=0;entryY=0.5;entryDx=0;entryDy=0;" parent="1" source="wKZz9qKqQG9GuFVw73VF-70" target="wKZz9qKqQG9GuFVw73VF-77" edge="1">
          <mxGeometry relative="1" as="geometry" />
        </mxCell>
        <mxCell id="wKZz9qKqQG9GuFVw73VF-70" value="" style="shape=image;verticalLabelPosition=bottom;labelBackgroundColor=default;verticalAlign=top;aspect=fixed;imageAspect=0;image=https://cdn-icons-png.flaticon.com/128/14186/14186429.png;" parent="1" vertex="1">
          <mxGeometry x="330" y="1300" width="90" height="90" as="geometry" />
        </mxCell>
        <mxCell id="wKZz9qKqQG9GuFVw73VF-75" value="Underappreciated" style="rounded=0;whiteSpace=wrap;html=1;fillColor=#607DA4;fontFamily=Segoe UI;fontColor=#FFFFFF;fontStyle=1" parent="1" vertex="1">
          <mxGeometry x="500" y="1213" width="120" height="60" as="geometry" />
        </mxCell>
        <mxCell id="wKZz9qKqQG9GuFVw73VF-76" value="Important" style="rounded=0;whiteSpace=wrap;html=1;fillColor=#607DA4;fontFamily=Segoe UI;fontColor=#FFFFFF;fontStyle=1" parent="1" vertex="1">
          <mxGeometry x="500" y="1308" width="120" height="60" as="geometry" />
        </mxCell>
        <mxCell id="wKZz9qKqQG9GuFVw73VF-77" value="Collaboration" style="rounded=0;whiteSpace=wrap;html=1;fillColor=#607DA4;fontFamily=Segoe UI;fontColor=#FFFFFF;fontStyle=1" parent="1" vertex="1">
          <mxGeometry x="500" y="1403" width="120" height="60" as="geometry" />
        </mxCell>
        <mxCell id="wKZz9qKqQG9GuFVw73VF-78" value="Aboriginal and Torres Strait Islander mental health workers" style="text;html=1;align=center;verticalAlign=middle;whiteSpace=wrap;rounded=0;fontFamily=Segoe UI;fontStyle=1" parent="1" vertex="1">
          <mxGeometry x="302.5" y="1260" width="145" height="30" as="geometry" />
        </mxCell>
        <mxCell id="wKZz9qKqQG9GuFVw73VF-79" style="edgeStyle=orthogonalEdgeStyle;rounded=0;orthogonalLoop=1;jettySize=auto;html=1;exitX=1;exitY=0.5;exitDx=0;exitDy=0;entryX=0;entryY=0.617;entryDx=0;entryDy=0;entryPerimeter=0;" parent="1" source="wKZz9qKqQG9GuFVw73VF-70" target="wKZz9qKqQG9GuFVw73VF-76" edge="1">
          <mxGeometry relative="1" as="geometry" />
        </mxCell>
        <mxCell id="wKZz9qKqQG9GuFVw73VF-82" value="Aboriginal and Torres Strait Islander mental health workers are underappreciated and not readily available." style="text;html=1;align=left;verticalAlign=middle;whiteSpace=wrap;rounded=0;fontFamily=Segoe UI;fontSize=10;fontStyle=1" parent="1" vertex="1">
          <mxGeometry x="630" y="1228" width="190" height="30" as="geometry" />
        </mxCell>
        <mxCell id="wKZz9qKqQG9GuFVw73VF-83" value="Clinicians need to understand the crucial role of&amp;nbsp;Aboriginal and Torres Strait Islander mental health workers." style="text;html=1;align=left;verticalAlign=middle;whiteSpace=wrap;rounded=0;fontFamily=Segoe UI;fontSize=10;fontStyle=1" parent="1" vertex="1">
          <mxGeometry x="630" y="1323" width="190" height="30" as="geometry" />
        </mxCell>
        <mxCell id="wKZz9qKqQG9GuFVw73VF-84" value="Clinicians need to learn how to&amp;nbsp;work&amp;nbsp; professionally alongside Aboriginal and Torres Strait Islander mental health workers." style="text;html=1;align=left;verticalAlign=middle;whiteSpace=wrap;rounded=0;fontFamily=Segoe UI;fontSize=10;fontStyle=1" parent="1" vertex="1">
          <mxGeometry x="630" y="1418" width="190" height="30" as="geometry" />
        </mxCell>
        <mxCell id="wKZz9qKqQG9GuFVw73VF-85" value="" style="shape=image;verticalLabelPosition=bottom;labelBackgroundColor=default;verticalAlign=top;aspect=fixed;imageAspect=0;image=https://cdn-icons-png.flaticon.com/128/991/991922.png;" parent="1" vertex="1">
          <mxGeometry x="335" y="1620" width="80" height="80" as="geometry" />
        </mxCell>
        <mxCell id="wKZz9qKqQG9GuFVw73VF-101" style="edgeStyle=orthogonalEdgeStyle;rounded=0;orthogonalLoop=1;jettySize=auto;html=1;exitX=0;exitY=0.5;exitDx=0;exitDy=0;entryX=1;entryY=0.5;entryDx=0;entryDy=0;" parent="1" source="wKZz9qKqQG9GuFVw73VF-86" target="wKZz9qKqQG9GuFVw73VF-98" edge="1">
          <mxGeometry relative="1" as="geometry" />
        </mxCell>
        <mxCell id="wKZz9qKqQG9GuFVw73VF-102" style="edgeStyle=orthogonalEdgeStyle;rounded=0;orthogonalLoop=1;jettySize=auto;html=1;exitX=0;exitY=0.5;exitDx=0;exitDy=0;entryX=1;entryY=0.5;entryDx=0;entryDy=0;" parent="1" source="wKZz9qKqQG9GuFVw73VF-86" target="wKZz9qKqQG9GuFVw73VF-100" edge="1">
          <mxGeometry relative="1" as="geometry" />
        </mxCell>
        <mxCell id="wKZz9qKqQG9GuFVw73VF-103" style="edgeStyle=orthogonalEdgeStyle;rounded=0;orthogonalLoop=1;jettySize=auto;html=1;exitX=0;exitY=0.5;exitDx=0;exitDy=0;entryX=1;entryY=0.5;entryDx=0;entryDy=0;" parent="1" source="wKZz9qKqQG9GuFVw73VF-86" target="wKZz9qKqQG9GuFVw73VF-99" edge="1">
          <mxGeometry relative="1" as="geometry" />
        </mxCell>
        <mxCell id="wKZz9qKqQG9GuFVw73VF-86" value="Content Ideas" style="rounded=0;whiteSpace=wrap;html=1;fillColor=#607DA4;fontFamily=Segoe UI;fontColor=#FFFFFF;fontStyle=1" parent="1" vertex="1">
          <mxGeometry x="190" y="1630" width="120" height="60" as="geometry" />
        </mxCell>
        <mxCell id="wKZz9qKqQG9GuFVw73VF-92" style="edgeStyle=orthogonalEdgeStyle;rounded=0;orthogonalLoop=1;jettySize=auto;html=1;exitX=1;exitY=0.5;exitDx=0;exitDy=0;entryX=0;entryY=0.5;entryDx=0;entryDy=0;" parent="1" source="wKZz9qKqQG9GuFVw73VF-87" target="wKZz9qKqQG9GuFVw73VF-90" edge="1">
          <mxGeometry relative="1" as="geometry" />
        </mxCell>
        <mxCell id="wKZz9qKqQG9GuFVw73VF-93" style="edgeStyle=orthogonalEdgeStyle;rounded=0;orthogonalLoop=1;jettySize=auto;html=1;exitX=1;exitY=0.5;exitDx=0;exitDy=0;entryX=0;entryY=0.5;entryDx=0;entryDy=0;" parent="1" source="wKZz9qKqQG9GuFVw73VF-87" target="wKZz9qKqQG9GuFVw73VF-89" edge="1">
          <mxGeometry relative="1" as="geometry" />
        </mxCell>
        <mxCell id="wKZz9qKqQG9GuFVw73VF-94" style="edgeStyle=orthogonalEdgeStyle;rounded=0;orthogonalLoop=1;jettySize=auto;html=1;exitX=1;exitY=0.5;exitDx=0;exitDy=0;entryX=0;entryY=0.5;entryDx=0;entryDy=0;" parent="1" source="wKZz9qKqQG9GuFVw73VF-87" target="wKZz9qKqQG9GuFVw73VF-91" edge="1">
          <mxGeometry relative="1" as="geometry" />
        </mxCell>
        <mxCell id="wKZz9qKqQG9GuFVw73VF-87" value="&lt;font face=&quot;Segoe UI&quot;&gt;Delivery&lt;/font&gt;" style="rounded=0;whiteSpace=wrap;html=1;fillColor=#C0D72F;fontStyle=1" parent="1" vertex="1">
          <mxGeometry x="447.5" y="1630" width="120" height="60" as="geometry" />
        </mxCell>
        <mxCell id="wKZz9qKqQG9GuFVw73VF-88" value="Communication Training" style="text;html=1;align=center;verticalAlign=middle;whiteSpace=wrap;rounded=0;fontFamily=Segoe UI;fontStyle=1" parent="1" vertex="1">
          <mxGeometry x="300" y="1580" width="145" height="30" as="geometry" />
        </mxCell>
        <mxCell id="wKZz9qKqQG9GuFVw73VF-89" value="Face-to-Face, Off-site, and Full Day" style="rounded=0;whiteSpace=wrap;html=1;fillColor=#C0D72F;fontFamily=Segoe UI;fontColor=#000000;fontStyle=1" parent="1" vertex="1">
          <mxGeometry x="610" y="1535" width="120" height="60" as="geometry" />
        </mxCell>
        <mxCell id="wKZz9qKqQG9GuFVw73VF-90" value="Interactive and Practical" style="rounded=0;whiteSpace=wrap;html=1;fillColor=#C0D72F;fontFamily=Segoe UI;fontColor=#000000;fontStyle=1" parent="1" vertex="1">
          <mxGeometry x="610" y="1630" width="120" height="60" as="geometry" />
        </mxCell>
        <mxCell id="wKZz9qKqQG9GuFVw73VF-91" value="Promote Changes" style="rounded=0;whiteSpace=wrap;html=1;fillColor=#C0D72F;fontFamily=Segoe UI;fontColor=#000000;fontStyle=1" parent="1" vertex="1">
          <mxGeometry x="610" y="1725" width="120" height="60" as="geometry" />
        </mxCell>
        <mxCell id="wKZz9qKqQG9GuFVw73VF-95" value="Most clinicians prefer full-day, face-to-face training sessions where they can concentrate fully on the material.&amp;nbsp;" style="text;html=1;align=left;verticalAlign=middle;whiteSpace=wrap;rounded=0;fontFamily=Segoe UI;fontSize=10;fontStyle=1" parent="1" vertex="1">
          <mxGeometry x="740" y="1550" width="190" height="30" as="geometry" />
        </mxCell>
        <mxCell id="wKZz9qKqQG9GuFVw73VF-96" value="The training should focus on practical skills, incorporating case scenarios and role modelling." style="text;html=1;align=left;verticalAlign=middle;whiteSpace=wrap;rounded=0;fontFamily=Segoe UI;fontSize=10;fontStyle=1" parent="1" vertex="1">
          <mxGeometry x="740" y="1645" width="190" height="30" as="geometry" />
        </mxCell>
        <mxCell id="wKZz9qKqQG9GuFVw73VF-97" value="The training should aim to promote behavioural and mindset changes, rather than just providing a guidebook." style="text;html=1;align=left;verticalAlign=middle;whiteSpace=wrap;rounded=0;fontFamily=Segoe UI;fontSize=10;fontStyle=1" parent="1" vertex="1">
          <mxGeometry x="740" y="1740" width="190" height="30" as="geometry" />
        </mxCell>
        <mxCell id="wKZz9qKqQG9GuFVw73VF-98" value="&lt;font face=&quot;Segoe UI&quot;&gt;Sensitive and Gentle Introduction&lt;/font&gt;" style="rounded=0;whiteSpace=wrap;html=1;fillColor=#607DA4;fontStyle=1;fontColor=#FFFFFF;" parent="1" vertex="1">
          <mxGeometry x="20" y="1630" width="120" height="60" as="geometry" />
        </mxCell>
        <mxCell id="wKZz9qKqQG9GuFVw73VF-99" value="&lt;font face=&quot;Segoe UI&quot;&gt;Common-Ground and Self-Disclosure&lt;/font&gt;" style="rounded=0;whiteSpace=wrap;html=1;fillColor=#607DA4;fontStyle=1;fontColor=#FFFFFF;" parent="1" vertex="1">
          <mxGeometry x="20" y="1720" width="120" height="60" as="geometry" />
        </mxCell>
        <mxCell id="wKZz9qKqQG9GuFVw73VF-100" value="&lt;font face=&quot;Segoe UI&quot;&gt;De-escalation&lt;/font&gt;" style="rounded=0;whiteSpace=wrap;html=1;fillColor=#607DA4;fontStyle=1;fontColor=#FFFFFF;" parent="1" vertex="1">
          <mxGeometry x="20" y="1540" width="120" height="60" as="geometry" />
        </mxCell>
        <mxCell id="wKZz9qKqQG9GuFVw73VF-104" value="Clinicians may learn how to manage crisis and de-escalate tension." style="text;html=1;align=right;verticalAlign=middle;whiteSpace=wrap;rounded=0;fontFamily=Segoe UI;fontSize=10;fontStyle=1" parent="1" vertex="1">
          <mxGeometry x="-180" y="1555" width="190" height="30" as="geometry" />
        </mxCell>
        <mxCell id="wKZz9qKqQG9GuFVw73VF-105" value="Clinicians may learn to start sessions by introducing themselves and gathering the patient&#39;s personal information." style="text;html=1;align=right;verticalAlign=middle;whiteSpace=wrap;rounded=0;fontFamily=Segoe UI;fontSize=10;fontStyle=1" parent="1" vertex="1">
          <mxGeometry x="-180" y="1645" width="190" height="30" as="geometry" />
        </mxCell>
        <mxCell id="wKZz9qKqQG9GuFVw73VF-106" value="Clinicians may also learn to use self-disclosure carefully as a means of establishing common ground with the patient." style="text;html=1;align=right;verticalAlign=middle;whiteSpace=wrap;rounded=0;fontFamily=Segoe UI;fontSize=10;fontStyle=1" parent="1" vertex="1">
          <mxGeometry x="-180" y="1740" width="190" height="30" as="geometry" />
        </mxCell>
        <mxCell id="3lQWoyqt2uAs_u1r6eDb-51" value="" style="shape=image;verticalLabelPosition=bottom;labelBackgroundColor=default;verticalAlign=top;aspect=fixed;imageAspect=0;image=https://upload.wikimedia.org/wikipedia/en/thumb/c/cc/CQUniversity_Australia_logo.svg/1200px-CQUniversity_Australia_logo.svg.png;" vertex="1" parent="1">
          <mxGeometry x="60" y="1950" width="190.16" height="116.95" as="geometry" />
        </mxCell>
        <mxCell id="3lQWoyqt2uAs_u1r6eDb-52" value="Communication for Mental Health&amp;nbsp;" style="text;html=1;align=left;verticalAlign=middle;whiteSpace=wrap;rounded=0;fontFamily=Segoe UI;fontSize=26;fontStyle=1;fontColor=#003666;" vertex="1" parent="1">
          <mxGeometry x="280" y="1970" width="480" height="30" as="geometry" />
        </mxCell>
        <mxCell id="3lQWoyqt2uAs_u1r6eDb-53" value="" style="endArrow=none;html=1;rounded=0;strokeColor=#003666;strokeWidth=3;" edge="1" parent="1">
          <mxGeometry width="50" height="50" relative="1" as="geometry">
            <mxPoint x="264" y="2110" as="sourcePoint" />
            <mxPoint x="264" y="1980" as="targetPoint" />
          </mxGeometry>
        </mxCell>
        <mxCell id="3lQWoyqt2uAs_u1r6eDb-54" value="&lt;b style=&quot;font-size: 14px;&quot;&gt;Lead Investigator&lt;/b&gt;: Greg Pratt" style="text;html=1;align=left;verticalAlign=middle;whiteSpace=wrap;rounded=0;fontFamily=Segoe UI;fontColor=#003666;fontSize=14;" vertex="1" parent="1">
          <mxGeometry x="285" y="2007" width="270" height="30" as="geometry" />
        </mxCell>
        <mxCell id="3lQWoyqt2uAs_u1r6eDb-55" value="&lt;b style=&quot;font-size: 14px;&quot;&gt;Research Team&lt;/b&gt;:&lt;div&gt;&lt;br&gt;&lt;/div&gt;" style="text;html=1;align=left;verticalAlign=middle;whiteSpace=wrap;rounded=0;fontFamily=Segoe UI;fontColor=#003666;fontSize=14;" vertex="1" parent="1">
          <mxGeometry x="285" y="2047" width="125" height="33" as="geometry" />
        </mxCell>
        <mxCell id="3lQWoyqt2uAs_u1r6eDb-56" value="THE JAWUN RESEARCH CENTRE" style="text;html=1;align=center;verticalAlign=middle;whiteSpace=wrap;rounded=0;fontStyle=1;fontFamily=Segoe UI;fontColor=#003666;" vertex="1" parent="1">
          <mxGeometry x="50.16" y="2080" width="200" height="30" as="geometry" />
        </mxCell>
        <mxCell id="3lQWoyqt2uAs_u1r6eDb-57" value="&lt;div&gt;&lt;div&gt;Julie-Anne Rogers&lt;/div&gt;&lt;div&gt;Kushla Houkamau&lt;br&gt;Corey Jones&lt;/div&gt;&lt;div&gt;Edwin Adrianta Surijah&lt;/div&gt;&lt;/div&gt;" style="text;html=1;align=left;verticalAlign=middle;whiteSpace=wrap;rounded=0;fontFamily=Segoe UI;fontColor=#003666;fontSize=14;" vertex="1" parent="1">
          <mxGeometry x="407" y="2047" width="150" height="63" as="geometry" />
        </mxCell>
      </root>
    </mxGraphModel>
  </diagram>
</mxfile>
